<?xml version="1.0" standalone="no"?>
<!DOCTYPE svg PUBLIC "-//W3C//DTD SVG 20010904//EN"
 "http://www.w3.org/TR/2001/REC-SVG-20010904/DTD/svg10.dtd">
<svg version="1.0" xmlns="http://www.w3.org/2000/svg"
 width="1000.000000pt" height="1000.000000pt" viewBox="0 0 1000.000000 1000.000000"
 preserveAspectRatio="xMidYMid meet">
<metadata>
Created by potrace 1.14, written by Peter Selinger 2001-2017
</metadata>
<g transform="translate(0.000000,1000.000000) scale(0.100000,-0.100000)"
fill="#000000" stroke="none">
<path d="M1939 9916 c-2 -2 -33 -6 -69 -10 -78 -8 -122 -14 -175 -27 -55 -13
-77 -18 -100 -23 -47 -9 -145 -41 -215 -68 -275 -108 -493 -250 -695 -453
-129 -129 -153 -157 -244 -290 -122 -179 -235 -417 -276 -585 -29 -120 -45
-194 -50 -230 -3 -25 -10 -76 -15 -115 -5 -40 -9 -1377 -9 -3130 0 -2924 1
-3065 19 -3172 31 -188 77 -361 127 -473 129 -290 242 -459 438 -656 327 -328
695 -510 1174 -579 80 -12 601 -13 3191 -12 1702 1 3104 5 3115 9 11 3 43 9
70 12 28 4 97 18 154 31 622 149 1138 586 1384 1175 38 90 83 222 91 263 1 7
10 46 19 87 48 209 46 76 44 3370 -2 1702 -6 3111 -10 3130 -5 19 -13 62 -18
95 -14 84 -63 267 -93 345 -184 489 -537 878 -1001 1105 -179 87 -328 136
-560 182 -85 17 -255 18 -3191 20 -1705 2 -3103 1 -3105 -1z"/>
</g>
</svg>
